<svg xmlns="http://www.w3.org/2000/svg" xmlns:xlink="http://www.w3.org/1999/xlink" viewBox="0,0,256,256" width="64px" height="64px"><g fill="#e7d6ac" fill-rule="nonzero" stroke="none" stroke-width="1" stroke-linecap="butt" stroke-linejoin="miter" stroke-miterlimit="10" stroke-dasharray="" stroke-dashoffset="0" font-family="none" font-weight="none" font-size="none" text-anchor="none" style="mix-blend-mode: normal"><g transform="scale(4,4)"><path d="M30.7832,13.10742c-6.33869,-0.0011 -12.67015,0.17513 -18.99609,0.5332c0,0.00065 0,0.0013 0,0.00195c-3.71671,0.21075 -6.82485,3.04048 -7.23047,6.76367c-0.84971,7.80246 -0.8778,13.86058 0.00391,22.0918c0.25124,2.34632 1.43916,4.42828 3.44727,5.71875c2.0081,1.29047 4.76556,1.78815 8.12695,1.28516c6.72278,-1.00599 15.97702,-5.95158 27.56445,-17.28711c0.23524,-0.22988 0.3424,-0.56073 0.28662,-0.88488c-0.05578,-0.32415 -0.26737,-0.60014 -0.56592,-0.73817l-20,-9.25781c-0.30976,-0.14327 -0.67119,-0.11868 -0.9587,0.06521c-0.28751,0.18389 -0.46139,0.5017 -0.46122,0.84299v17.57031c0.00043,0.36441 0.19904,0.69974 0.51839,0.87526c0.31935,0.17552 0.7089,0.16345 1.01677,-0.03151l8.02148,-5.08789c0.46653,-0.2961 0.60469,-0.91433 0.30859,-1.38086c-0.2961,-0.46653 -0.91433,-0.60469 -1.38086,-0.30859l-6.48437,4.11328v-14.18359l17.19531,7.95898c-10.86503,10.3589 -19.53483,14.88682 -25.35547,15.75781c-3.01311,0.45088 -5.2471,-0.02442 -6.75,-0.99023c-1.5029,-0.96581 -2.34526,-2.42182 -2.54102,-4.25c-0.8703,-8.12478 -0.84219,-13.96457 -0.00391,-21.66211c0.29838,-2.73881 2.58218,-4.82712 5.35547,-4.98437c12.5761,-0.71185 25.17671,-0.707 37.80469,0.00391c2.80256,0.15802 5.05963,2.29181 5.37305,5.08008c0.88221,7.84798 1.32033,12.40951 0.20898,20.30859c-0.50449,3.58411 -3.60636,5.68802 -6.47656,6.24219c-4.36412,0.84218 -14.14577,1.12718 -20.625,0.67578c-0.55121,-0.03829 -1.02909,0.3775 -1.06738,0.92871c-0.03829,0.55121 0.3775,1.02909 0.92871,1.06738c6.66877,0.4646 16.3347,0.22079 21.14258,-0.70703c3.5418,-0.68384 7.43262,-3.34185 8.07813,-7.92773c1.13665,-8.07892 0.68262,-12.95048 -0.20117,-20.8125c-0.42059,-3.74173 -3.4886,-6.63958 -7.24805,-6.85156c-6.35101,-0.35754 -12.69647,-0.53793 -19.03516,-0.53906z"></path></g></g></svg>